<svg viewBox="0 0 520 100" fill="none" xmlns="http://www.w3.org/2000/svg">
  <path d="M50 8C25.7 8 6 24.5 6 44.8c0 12.5 7.2 23.5 18.4 30.6L18 91.2c-.5 1.8 1.2 3.3 2.8 2.4L37.5 85c3.8.9 7.8 1.4 12.5 1.4 24.3 0 44-16.5 44-36.6S74.3 8 50 8z" fill="#5b7a99"/>
  <path d="M50 13C28.5 13 11 27.2 11 44.8c0 10.8 6.5 20.4 16.4 26.6l1.8 1.1-4.7 9.8 13-6.5 1.5.3c3.5.7 7.2 1.1 11 1.1 21.5 0 39-14.2 39-31.6S71.5 13 50 13z" fill="#4a6d8c"/>
  <circle cx="50" cy="43" r="22" fill="#3d5f7a" stroke="#2d4f6a" stroke-width="2"/>
  <path d="M37 44l9 9 18-18" stroke="#fff" stroke-width="5.5" stroke-linecap="round" stroke-linejoin="round"/>
  <text x="110" y="62" font-family="system-ui, -apple-system, 'Segoe UI', sans-serif" font-size="48" font-weight="700" letter-spacing="-1">
    <tspan fill="#4a6d8c">trust</tspan><tspan dx="6" fill="#8899aa">tunnel</tspan>
  </text>
</svg>
